<svg width="42" height="42" viewBox="0 0 42 42" fill="none" xmlns="http://www.w3.org/2000/svg">
<path d="M37.5002 13.6667C38.4726 13.6667 39.4053 14.053 40.0929 14.7406C40.7805 15.4283 41.1668 16.3609 41.1668 17.3334V24.6667C41.1668 25.6391 40.7805 26.5718 40.0929 27.2594C39.4053 27.947 38.4726 28.3334 37.5002 28.3334H35.5532C35.1062 31.8777 33.3811 35.1372 30.7017 37.5C28.0223 39.8628 24.5726 41.1666 21.0002 41.1667V37.5C23.9175 37.5 26.7154 36.3411 28.7783 34.2782C30.8412 32.2153 32.0002 29.4174 32.0002 26.5V15.5C32.0002 12.5826 30.8412 9.78475 28.7783 7.72185C26.7154 5.65895 23.9175 4.50002 21.0002 4.50002C18.0828 4.50002 15.2849 5.65895 13.222 7.72185C11.1591 9.78475 10.0002 12.5826 10.0002 15.5V28.3334H4.50016C3.5277 28.3334 2.59507 27.947 1.90744 27.2594C1.2198 26.5718 0.833496 25.6391 0.833496 24.6667V17.3334C0.833496 16.3609 1.2198 15.4283 1.90744 14.7406C2.59507 14.053 3.5277 13.6667 4.50016 13.6667H6.44716C6.89455 10.1227 8.61981 6.86369 11.2992 4.50126C13.9786 2.13883 17.428 0.835327 21.0002 0.835327C24.5723 0.835327 28.0217 2.13883 30.7011 4.50126C33.3805 6.86369 35.1058 10.1227 35.5532 13.6667H37.5002ZM13.2268 27.9392L15.1702 24.8299C16.9175 25.9244 18.9383 26.5033 21.0002 26.5C23.062 26.5033 25.0829 25.9244 26.8302 24.8299L28.7735 27.9392C26.4438 29.3988 23.7493 30.1709 21.0002 30.1667C18.251 30.1709 15.5565 29.3988 13.2268 27.9392Z" fill="#3770E2"/>
</svg>
