<svg width="36" height="36" viewBox="0 0 36 36" fill="none" xmlns="http://www.w3.org/2000/svg">
<path d="M23.9104 24.4313L19.8532 32.9563C19.7765 33.1175 19.6616 33.2576 19.5186 33.3645C19.3756 33.4714 19.2087 33.5419 19.0324 33.5698C18.8561 33.5978 18.6756 33.5824 18.5065 33.5251C18.3375 33.4677 18.1849 33.37 18.062 33.2405L11.5684 26.3857C11.3949 26.2027 11.1638 26.0849 10.9139 26.052L1.55104 24.8273C1.37415 24.804 1.20557 24.7381 1.05987 24.6351C0.914158 24.5321 0.795686 24.3952 0.714668 24.2363C0.63365 24.0773 0.592517 23.901 0.594818 23.7226C0.597119 23.5442 0.642784 23.369 0.727874 23.2122L5.24154 14.9182C5.36153 14.6964 5.40166 14.4401 5.35521 14.1922L3.62637 4.91001C3.59354 4.73432 3.60402 4.55327 3.6569 4.38254C3.70977 4.21181 3.80346 4.05653 3.92984 3.93015C4.05623 3.80376 4.2115 3.71008 4.38224 3.6572C4.55297 3.60433 4.73401 3.59385 4.90971 3.62668L14.1919 5.35551C14.4398 5.40197 14.6961 5.36184 14.9179 5.24185L23.2119 0.72818C23.3688 0.643066 23.5441 0.597439 23.7227 0.595237C23.9012 0.593036 24.0776 0.634328 24.2366 0.715546C24.3956 0.796764 24.5325 0.915467 24.6353 1.0614C24.7382 1.20734 24.804 1.37612 24.827 1.55318L26.0517 10.9142C26.0846 11.1641 26.2024 11.3952 26.3854 11.5687L33.2402 18.0623C33.3697 18.1852 33.4674 18.3378 33.5248 18.5068C33.5821 18.6759 33.5975 18.8564 33.5695 19.0327C33.5416 19.209 33.4711 19.3759 33.3642 19.5189C33.2573 19.6619 33.1172 19.7768 32.956 19.8535L24.431 23.9107C24.2028 24.0193 24.019 24.2031 23.9104 24.4313ZM25.3715 27.9642L27.9639 25.3718L35.7427 33.1488L33.1485 35.743L25.3715 27.9642Z" fill="#3770E2"/>
</svg>
