<svg width="22" height="25" viewBox="0 0 22 25" fill="none" xmlns="http://www.w3.org/2000/svg">
<path d="M16.2291 0.111084C19.9359 0.111084 21.9999 2.24708 21.9999 5.90708V18.3031C21.9999 22.0231 19.9359 24.1111 16.2291 24.1111H6.1719C2.5239 24.1111 0.399902 22.0231 0.399902 18.3031V5.90708C0.399902 2.24708 2.5239 0.111084 6.1719 0.111084H16.2291ZM6.4959 16.5991C6.1359 16.5631 5.7879 16.7311 5.5959 17.0431C5.4039 17.3431 5.4039 17.7391 5.5959 18.0511C5.7879 18.3511 6.1359 18.5311 6.4959 18.4831H15.9039C16.3827 18.4351 16.7439 18.0259 16.7439 17.5471C16.7439 17.0551 16.3827 16.6471 15.9039 16.5991H6.4959ZM15.9039 11.1259H6.4959C5.9787 11.1259 5.5599 11.5471 5.5599 12.0631C5.5599 12.5791 5.9787 12.9991 6.4959 12.9991H15.9039C16.4199 12.9991 16.8399 12.5791 16.8399 12.0631C16.8399 11.5471 16.4199 11.1259 15.9039 11.1259ZM10.0827 5.69108H6.4959V5.70308C5.9787 5.70308 5.5599 6.12308 5.5599 6.63908C5.5599 7.15508 5.9787 7.57508 6.4959 7.57508H10.0827C10.5999 7.57508 11.0199 7.15508 11.0199 6.62588C11.0199 6.11108 10.5999 5.69108 10.0827 5.69108Z" fill="#3770E2"/>
</svg>
