<svg width="20" height="20" viewBox="0 0 20 20" fill="none" xmlns="http://www.w3.org/2000/svg">
<path d="M11 18V20H9V18H1C0.734784 18 0.48043 17.8946 0.292893 17.7071C0.105357 17.5196 0 17.2652 0 17V3H20V17C20 17.2652 19.8946 17.5196 19.7071 17.7071C19.5196 17.8946 19.2652 18 19 18H11ZM6 7C5.40666 7 4.82664 7.17595 4.33329 7.50559C3.83994 7.83524 3.45543 8.30377 3.22836 8.85195C3.0013 9.40013 2.94189 10.0033 3.05764 10.5853C3.1734 11.1672 3.45912 11.7018 3.87868 12.1213C4.29824 12.5409 4.83279 12.8266 5.41473 12.9424C5.99667 13.0581 6.59987 12.9987 7.14805 12.7716C7.69623 12.5446 8.16477 12.1601 8.49441 11.6667C8.82405 11.1734 9 10.5933 9 10H6V7ZM11 7V9H17V7H11ZM11 11V13H17V11H11ZM0 0H20V2H0V0Z" fill="#3770E2"/>
</svg>
