<svg width="20" height="20" viewBox="0 0 20 20" fill="none" xmlns="http://www.w3.org/2000/svg">
<path d="M3.63596 10.7069L5.46396 12.5359L6.87996 11.1199L5.04996 9.29295L6.46396 7.87895L8.29296 9.70695L9.70696 8.29295L7.87996 6.46395L9.29396 5.04995L11.12 6.87995L12.535 5.46495L10.706 3.63695L13.535 0.808947C13.7225 0.621476 13.9768 0.51616 14.242 0.51616C14.5071 0.51616 14.7614 0.621476 14.949 0.808947L19.191 5.05095C19.3784 5.23847 19.4837 5.49278 19.4837 5.75795C19.4837 6.02311 19.3784 6.27742 19.191 6.46495L6.46396 19.1919C6.27643 19.3794 6.02212 19.4847 5.75696 19.4847C5.49179 19.4847 5.23749 19.3794 5.04996 19.1919L0.807959 14.9499C0.620488 14.7624 0.515172 14.5081 0.515172 14.2429C0.515172 13.9778 0.620488 13.7235 0.807959 13.5359L3.63596 10.7069ZM12.121 16.3629L16.364 12.1209L19 14.7569V18.9999H14.758L12.121 16.3629ZM3.63596 7.87795L0.806958 5.04995C0.713982 4.95707 0.640223 4.84679 0.589899 4.72539C0.539575 4.60399 0.513672 4.47386 0.513672 4.34245C0.513672 4.21103 0.539575 4.0809 0.589899 3.95951C0.640223 3.83811 0.713982 3.72782 0.806958 3.63495L3.63596 0.806947C3.82349 0.619475 4.07779 0.51416 4.34296 0.51416C4.60812 0.51416 4.86243 0.619475 5.04996 0.806947L7.87996 3.63495L3.63596 7.87795Z" fill="white"/>
</svg>
