<svg width="26" height="22" viewBox="0 0 26 22" fill="none" xmlns="http://www.w3.org/2000/svg">
<path d="M18.3523 0C22.4701 0 25.2274 2.618 25.2274 6.512V15.5001C25.2274 19.3831 22.4701 22 18.3523 22H7.8209C3.70309 22 0.933594 19.3831 0.933594 15.5001V6.512C0.933594 2.618 3.70309 0 7.8209 0H18.3523ZM16.7367 7.6681C16.3237 7.293 15.6557 7.293 15.2305 7.6681L13.0805 9.625L10.9184 7.6681C10.4932 7.293 9.82514 7.293 9.41214 7.6681C8.99915 8.0421 8.99915 8.6581 9.41214 9.031L11.5743 10.9901L9.41214 12.9371C8.99915 13.3221 8.99915 13.9271 9.41214 14.3C9.61864 14.487 9.89802 14.5871 10.1653 14.5871C10.4446 14.5871 10.7119 14.487 10.9184 14.3L13.0805 12.3541L15.2427 14.3C15.4492 14.4991 15.7164 14.5871 15.9836 14.5871C16.263 14.5871 16.5302 14.487 16.7367 14.3C17.1497 13.9271 17.1497 13.3221 16.7367 12.9481L14.5746 10.9901L16.7367 9.031C17.1497 8.6581 17.1497 8.0421 16.7367 7.6681Z" fill="white"/>
</svg>
