<svg width="19" height="21" viewBox="0 0 19 21" fill="none" xmlns="http://www.w3.org/2000/svg">
<path d="M3.88322 16.653C3.58322 16.453 3.32522 16.198 3.02322 15.837C2.86647 15.6452 2.71113 15.4522 2.55722 15.258C2.09422 14.683 1.80222 14.418 1.50022 14.309C1.25052 14.2194 1.04666 14.0342 0.933481 13.7943C0.820303 13.5543 0.807081 13.2792 0.896724 13.0295C0.986367 12.7798 1.17153 12.576 1.41149 12.4628C1.65144 12.3496 1.92652 12.3364 2.17622 12.426C2.92822 12.696 3.43722 13.161 4.12322 14.014C4.02922 13.897 4.46322 14.441 4.55622 14.553C4.74622 14.78 4.88622 14.918 4.99622 14.991C5.20022 15.128 5.58322 15.187 6.14622 15.131C6.16922 14.749 6.24022 14.378 6.34822 14.036C3.38022 13.31 1.70022 11.396 1.70022 7.64002C1.70022 6.40002 2.07022 5.28402 2.75822 4.34802C2.54022 3.45402 2.57322 2.37302 3.06022 1.15602C3.11549 1.01836 3.2007 0.894714 3.30966 0.794052C3.41862 0.693389 3.54862 0.618231 3.69022 0.574023C3.77122 0.550023 3.81722 0.539023 3.89822 0.527023C4.70122 0.404023 5.83522 0.697023 7.31322 1.62302C8.19402 1.41711 9.09568 1.31375 10.0002 1.31502C10.9122 1.31502 11.8182 1.41902 12.6842 1.62302C14.1612 0.690023 15.2972 0.397023 16.1062 0.527023C16.1912 0.540023 16.2632 0.557023 16.3242 0.577023C16.4631 0.6228 16.5902 0.698457 16.6966 0.798666C16.803 0.898875 16.8862 1.0212 16.9402 1.15702C17.4272 2.37302 17.4602 3.45402 17.2422 4.34702C17.9332 5.28302 18.3002 6.39202 18.3002 7.64002C18.3002 11.397 16.6262 13.305 13.6582 14.032C13.7832 14.447 13.8482 14.911 13.8482 15.412C13.8483 16.3174 13.8443 17.2227 13.8362 18.128C14.0608 18.177 14.2616 18.3019 14.405 18.4816C14.5483 18.6613 14.6253 18.8849 14.623 19.1147C14.6208 19.3446 14.5395 19.5667 14.3927 19.7436C14.2459 19.9205 14.0427 20.0414 13.8172 20.086C12.6782 20.314 11.8342 19.554 11.8342 18.561L11.8362 18.115L11.8412 17.41C11.8462 16.702 11.8482 16.072 11.8482 15.412C11.8482 14.715 11.6652 14.26 11.4232 14.052C10.7622 13.482 11.0972 12.397 11.9632 12.3C14.9302 11.967 16.3002 10.818 16.3002 7.64002C16.3002 6.68502 15.9882 5.89602 15.3872 5.23602C15.2606 5.09727 15.1756 4.92565 15.142 4.74083C15.1084 4.55602 15.1275 4.36547 15.1972 4.19102C15.3632 3.77702 15.4342 3.23402 15.2932 2.57702L15.2832 2.58002C14.7922 2.71902 14.1732 3.02002 13.4252 3.52902C13.3046 3.61088 13.1676 3.66537 13.0237 3.68869C12.8798 3.71201 12.7325 3.70359 12.5922 3.66402C11.7481 3.43031 10.8761 3.31289 10.0002 3.31502C9.11022 3.31502 8.22822 3.43402 7.40822 3.66502C7.26844 3.70428 7.12179 3.71263 6.97846 3.68949C6.83512 3.66635 6.69855 3.61227 6.57822 3.53102C5.82622 3.02402 5.20422 2.72402 4.71022 2.58402C4.56622 3.23702 4.63722 3.77802 4.80222 4.19102C4.87203 4.36538 4.89133 4.55587 4.8579 4.74068C4.82448 4.9255 4.73968 5.09716 4.61322 5.23602C4.01622 5.89002 3.70022 6.69402 3.70022 7.64002C3.70022 10.812 5.07122 11.968 8.02222 12.3C8.88722 12.397 9.22322 13.477 8.56622 14.048C8.37422 14.216 8.13722 14.78 8.13722 15.412V18.562C8.13722 19.548 7.30222 20.287 6.17722 20.09C5.94899 20.0499 5.74176 19.9319 5.59094 19.7559C5.44013 19.58 5.35509 19.3572 5.35037 19.1255C5.34564 18.8938 5.42153 18.6677 5.56504 18.4857C5.70856 18.3038 5.91081 18.1774 6.13722 18.128V17.138C5.22722 17.199 4.47522 17.05 3.88322 16.653Z" fill="black"/>
</svg>
