<svg width="22" height="20" viewBox="0 0 22 20" fill="none" xmlns="http://www.w3.org/2000/svg">
<path d="M4.6802 5.31403L2.8602 11.228L11.0002 17.442L19.1402 11.228L17.3202 5.31403L15.6432 9.00004H6.3562L4.6812 5.31403H4.6802ZM14.3572 7.00003L17.2452 0.646035C17.2787 0.571962 17.334 0.509857 17.4037 0.467994C17.4734 0.426131 17.5542 0.406499 17.6353 0.411712C17.7164 0.416925 17.7941 0.446737 17.8578 0.497175C17.9216 0.547613 17.9685 0.616282 17.9922 0.694035L21.3592 11.639C21.3892 11.7366 21.3886 11.8411 21.3575 11.9383C21.3264 12.0356 21.2663 12.121 21.1852 12.183L11.0002 19.958L0.816204 12.183C0.735125 12.121 0.674991 12.0356 0.643885 11.9383C0.612779 11.8411 0.612192 11.7366 0.642204 11.639L4.0092 0.694035C4.03295 0.616282 4.07983 0.547613 4.14359 0.497175C4.20736 0.446737 4.28497 0.416925 4.3661 0.411712C4.44724 0.406499 4.52803 0.426131 4.59772 0.467994C4.66742 0.509857 4.7227 0.571962 4.7562 0.646035L7.6442 7.00003H14.3562H14.3572Z" fill="black"/>
</svg>
