<svg width="34" height="30" viewBox="0 0 34 30" fill="none" xmlns="http://www.w3.org/2000/svg">
<path d="M20.1817 12.7198C19.9004 12.4386 19.5189 12.2806 19.1212 12.2806C18.7234 12.2806 18.342 12.4386 18.0607 12.7198L17.0002 13.7788C16.7234 14.0653 16.3924 14.2939 16.0264 14.4511C15.6604 14.6083 15.2667 14.6911 14.8684 14.6946C14.47 14.698 14.075 14.6221 13.7063 14.4713C13.3376 14.3204 13.0027 14.0977 12.721 13.816C12.4393 13.5343 12.2166 13.1994 12.0657 12.8307C11.9149 12.462 11.839 12.0669 11.8424 11.6686C11.8459 11.2703 11.9287 10.8766 12.0859 10.5106C12.2431 10.1446 12.4717 9.81354 12.7582 9.5368L21.2032 1.0888C23.2026 0.634039 25.2944 0.821197 27.1813 1.62366C29.0683 2.42613 30.6541 3.80305 31.7135 5.55864C32.7729 7.31423 33.2518 9.35912 33.0822 11.4025C32.9126 13.446 32.103 15.3839 30.7687 16.9408L27.6067 20.1433L20.1817 12.7183V12.7198ZM3.74168 3.7018C5.29382 2.14987 7.32401 1.16677 9.50402 0.911449C11.684 0.65613 13.8864 1.14351 15.7552 2.2948L10.6357 7.4158C9.52688 8.52239 8.89483 10.0188 8.87459 11.5851C8.85435 13.1515 9.44752 14.6637 10.5274 15.7986C11.6072 16.9335 13.088 17.601 14.6535 17.6586C16.219 17.7162 17.7449 17.1593 18.9052 16.1068L19.1212 15.9013L25.4857 22.2643L19.1212 28.6288C18.5586 29.1912 17.7957 29.5072 17.0002 29.5072C16.2047 29.5072 15.4418 29.1912 14.8792 28.6288L3.74018 17.4898C1.91188 15.6613 0.884766 13.1815 0.884766 10.5958C0.884766 8.01008 1.91188 5.53026 3.74018 3.7018H3.74168Z" fill="black"/>
</svg>
