<svg width="28" height="33" viewBox="0 0 28 33" fill="none" xmlns="http://www.w3.org/2000/svg">
<path d="M23.546 23.0459L14 32.5919L4.45401 23.0459C2.56601 21.1579 1.28028 18.7524 0.759393 16.1337C0.238506 13.5149 0.50586 10.8005 1.52765 8.33373C2.54944 5.86694 4.27977 3.75854 6.49983 2.27515C8.71988 0.791757 11.33 0 14 0C16.67 0 19.2801 0.791757 21.5002 2.27515C23.7202 3.75854 25.4506 5.86694 26.4724 8.33373C27.4942 10.8005 27.7615 13.5149 27.2406 16.1337C26.7197 18.7524 25.434 21.1579 23.546 23.0459ZM14 19.4999C15.5913 19.4999 17.1174 18.8677 18.2426 17.7425C19.3679 16.6173 20 15.0912 20 13.4999C20 11.9086 19.3679 10.3825 18.2426 9.25724C17.1174 8.13202 15.5913 7.49988 14 7.49988C12.4087 7.49988 10.8826 8.13202 9.75736 9.25724C8.63215 10.3825 8.00001 11.9086 8.00001 13.4999C8.00001 15.0912 8.63215 16.6173 9.75736 17.7425C10.8826 18.8677 12.4087 19.4999 14 19.4999ZM14 16.4999C13.2044 16.4999 12.4413 16.1838 11.8787 15.6212C11.3161 15.0586 11 14.2955 11 13.4999C11 12.7042 11.3161 11.9412 11.8787 11.3786C12.4413 10.816 13.2044 10.4999 14 10.4999C14.7957 10.4999 15.5587 10.816 16.1213 11.3786C16.6839 11.9412 17 12.7042 17 13.4999C17 14.2955 16.6839 15.0586 16.1213 15.6212C15.5587 16.1838 14.7957 16.4999 14 16.4999Z" fill="black"/>
</svg>
