<svg width="38" height="38" viewBox="0 0 38 38" fill="none" xmlns="http://www.w3.org/2000/svg">
<path d="M20.8332 33.5V37.1667H17.1665V33.5H2.49984C2.01361 33.5 1.54729 33.3068 1.20347 32.963C0.859658 32.6192 0.666504 32.1529 0.666504 31.6667V6H37.3332V31.6667C37.3332 32.1529 37.14 32.6192 36.7962 32.963C36.4524 33.3068 35.9861 33.5 35.4998 33.5H20.8332ZM4.33317 29.8333H33.6665V9.66667H4.33317V29.8333ZM20.8332 13.3333H29.9998V17H20.8332V13.3333ZM20.8332 20.6667H29.9998V24.3333H20.8332V20.6667ZM13.4998 13.3333V18.8333H18.9998C18.9998 19.9211 18.6773 20.9845 18.0729 21.889C17.4686 22.7934 16.6096 23.4984 15.6046 23.9147C14.5996 24.331 13.4937 24.4399 12.4268 24.2277C11.3599 24.0154 10.3799 23.4916 9.61075 22.7224C8.84156 21.9532 8.31774 20.9732 8.10552 19.9063C7.8933 18.8394 8.00222 17.7336 8.4185 16.7286C8.83478 15.7236 9.53973 14.8646 10.4442 14.2603C11.3487 13.6559 12.412 13.3333 13.4998 13.3333ZM0.666504 0.5H37.3332V4.16667H0.666504V0.5Z" fill="#3770E2"/>
</svg>
