<svg width="11" height="11" viewBox="0 0 11 11" fill="none" xmlns="http://www.w3.org/2000/svg">
<path d="M1.70833 3.33331V9.83331H9.29167V3.33331H1.70833ZM1.70833 2.24998H9.29167V1.16665H1.70833V2.24998ZM9.83333 10.9166H1.16667C1.02301 10.9166 0.885233 10.8596 0.78365 10.758C0.682068 10.6564 0.625 10.5186 0.625 10.375V0.62498C0.625 0.481321 0.682068 0.343546 0.78365 0.241963C0.885233 0.140381 1.02301 0.083313 1.16667 0.083313H9.83333C9.97699 0.083313 10.1148 0.140381 10.2164 0.241963C10.3179 0.343546 10.375 0.481321 10.375 0.62498V10.375C10.375 10.5186 10.3179 10.6564 10.2164 10.758C10.1148 10.8596 9.97699 10.9166 9.83333 10.9166ZM2.79167 4.41665H4.95833V6.58331H2.79167V4.41665ZM2.79167 7.66665H8.20833V8.74998H2.79167V7.66665ZM6.04167 4.95831H8.20833V6.04165H6.04167V4.95831Z" fill="black"/>
</svg>
