<svg width="12" height="11" viewBox="0 0 12 11" fill="none" xmlns="http://www.w3.org/2000/svg">
<path d="M9.83333 0.0833435C10.1323 0.0833435 10.375 0.32601 10.375 0.62501V2.66005L9.29167 3.74339V1.16668H1.70833V9.83334H9.29167V8.33943L10.375 7.25609V10.375C10.375 10.674 10.1323 10.9167 9.83333 10.9167H1.16667C0.867667 10.9167 0.625 10.674 0.625 10.375V0.62501C0.625 0.32601 0.867667 0.0833435 1.16667 0.0833435H9.83333ZM10.7964 3.77101L11.5623 4.53693L7.34925 8.75001L6.58225 8.74893L6.58333 7.98409L10.7964 3.77101ZM6.04167 5.50001V6.58334H3.33333V5.50001H6.04167ZM7.66667 3.33334V4.41668H3.33333V3.33334H7.66667Z" fill="black"/>
</svg>
