<svg width="34" height="34" viewBox="0 0 34 34" fill="none" xmlns="http://www.w3.org/2000/svg">
<path d="M18.6668 30V33.3333H15.3335V30H2.00016C1.55814 30 1.13421 29.8244 0.821651 29.5118C0.509091 29.1993 0.333496 28.7754 0.333496 28.3333V5H33.6668V28.3333C33.6668 28.7754 33.4912 29.1993 33.1787 29.5118C32.8661 29.8244 32.4422 30 32.0002 30H18.6668ZM10.3335 11.6667C9.34459 11.6667 8.37789 11.9599 7.55564 12.5093C6.7334 13.0587 6.09254 13.8396 5.7141 14.7532C5.33566 15.6669 5.23664 16.6722 5.42957 17.6421C5.6225 18.612 6.0987 19.5029 6.79796 20.2022C7.49723 20.9015 8.38814 21.3777 9.35804 21.5706C10.328 21.7635 11.3333 21.6645 12.2469 21.2861C13.1605 20.9076 13.9414 20.2668 14.4908 19.4445C15.0403 18.6223 15.3335 17.6556 15.3335 16.6667H10.3335V11.6667ZM18.6668 11.6667V15H28.6668V11.6667H18.6668ZM18.6668 18.3333V21.6667H28.6668V18.3333H18.6668ZM0.333496 0H33.6668V3.33333H0.333496V0Z" fill="black"/>
</svg>
