<svg width="22" height="22" viewBox="0 0 22 22" fill="none" xmlns="http://www.w3.org/2000/svg">
<path d="M14.4928 14.8003L12.0953 19.8378C12.05 19.9331 11.9821 20.0159 11.8976 20.079C11.8131 20.1422 11.7145 20.1838 11.6103 20.2004C11.5061 20.2169 11.3995 20.2078 11.2996 20.1739C11.1997 20.14 11.1095 20.0823 11.0369 20.0058L7.19976 15.9552C7.09725 15.8471 6.96071 15.7775 6.81301 15.758L1.28043 15.0343C1.1759 15.0206 1.07629 14.9816 0.990187 14.9207C0.904087 14.8599 0.834081 14.779 0.786207 14.6851C0.738332 14.5911 0.714027 14.487 0.715386 14.3815C0.716746 14.2761 0.743729 14.1726 0.79401 14.0799L3.46118 9.17893C3.53208 9.04786 3.55579 8.8964 3.52834 8.74993L2.50676 3.26501C2.48736 3.1612 2.49355 3.05421 2.5248 2.95333C2.55604 2.85244 2.6114 2.76068 2.68608 2.686C2.76076 2.61132 2.85252 2.55596 2.95341 2.52472C3.05429 2.49347 3.16128 2.48728 3.26509 2.50668L8.75001 3.52826C8.89648 3.55571 9.04794 3.532 9.17901 3.4611L14.08 0.793931C14.1728 0.743636 14.2764 0.716675 14.3819 0.715374C14.4873 0.714073 14.5916 0.738473 14.6855 0.786465C14.7795 0.834458 14.8604 0.9046 14.9211 0.990836C14.9819 1.07707 15.0208 1.17681 15.0344 1.28143L15.7581 6.81293C15.7776 6.96063 15.8472 7.09717 15.9553 7.19968L20.0058 11.0368C20.0824 11.1095 20.1401 11.1996 20.174 11.2995C20.2079 11.3994 20.217 11.5061 20.2004 11.6103C20.1839 11.7144 20.1423 11.813 20.0791 11.8975C20.016 11.9821 19.9332 12.0499 19.8379 12.0953L14.8004 14.4927C14.6656 14.5568 14.5569 14.6655 14.4928 14.8003ZM15.3562 16.8879L16.888 15.3561L21.4846 19.9516L19.9517 21.4845L15.3562 16.8879Z" fill="#3770E2"/>
</svg>
