<svg width="38" height="38" viewBox="0 0 38 38" fill="none" xmlns="http://www.w3.org/2000/svg">
<path d="M18.9998 17.1667C21.431 17.1667 23.7626 18.1325 25.4816 19.8515C27.2007 21.5706 28.1665 23.9022 28.1665 26.3334V37.3334H24.4998V26.3334C24.4999 24.9305 23.9639 23.5806 23.0015 22.5599C22.0391 21.5392 20.723 20.9248 19.3225 20.8425L18.9998 20.8334C17.597 20.8333 16.2471 21.3693 15.2264 22.3317C14.2057 23.2941 13.5913 24.6102 13.509 26.0107L13.4998 26.3334V37.3334H9.83317V26.3334C9.83317 23.9022 10.7989 21.5706 12.518 19.8515C14.2371 18.1325 16.5687 17.1667 18.9998 17.1667ZM7.08317 22.6667C7.59467 22.6667 8.0915 22.7272 8.56817 22.839C8.25471 23.7722 8.06908 24.7435 8.01634 25.7265L7.99984 26.3334V26.491C7.7891 26.4156 7.56991 26.3664 7.34717 26.3444L7.08317 26.3334C6.39955 26.3334 5.74045 26.588 5.2344 27.0477C4.72835 27.5073 4.41163 28.1389 4.346 28.8194L4.33317 29.0834V37.3334H0.666504V29.0834C0.666504 27.3815 1.34254 25.7494 2.5459 24.5461C3.74926 23.3427 5.38136 22.6667 7.08317 22.6667ZM30.9165 22.6667C32.6183 22.6667 34.2504 23.3427 35.4538 24.5461C36.6571 25.7494 37.3332 27.3815 37.3332 29.0834V37.3334H33.6665V29.0834C33.6665 28.3997 33.4118 27.7406 32.9522 27.2346C32.4926 26.7285 31.861 26.4118 31.1805 26.3462L30.9165 26.3334C30.5957 26.3334 30.2877 26.3884 29.9998 26.4892V26.3334C29.9998 25.1124 29.8018 23.939 29.4333 22.8427C29.9082 22.7272 30.405 22.6667 30.9165 22.6667ZM7.08317 11.6667C8.29875 11.6667 9.46453 12.1496 10.3241 13.0091C11.1836 13.8687 11.6665 15.0344 11.6665 16.25C11.6665 17.4656 11.1836 18.6314 10.3241 19.4909C9.46453 20.3505 8.29875 20.8334 7.08317 20.8334C5.8676 20.8334 4.70181 20.3505 3.84226 19.4909C2.98272 18.6314 2.49984 17.4656 2.49984 16.25C2.49984 15.0344 2.98272 13.8687 3.84226 13.0091C4.70181 12.1496 5.8676 11.6667 7.08317 11.6667ZM30.9165 11.6667C32.1321 11.6667 33.2979 12.1496 34.1574 13.0091C35.017 13.8687 35.4998 15.0344 35.4998 16.25C35.4998 17.4656 35.017 18.6314 34.1574 19.4909C33.2979 20.3505 32.1321 20.8334 30.9165 20.8334C29.7009 20.8334 28.5351 20.3505 27.6756 19.4909C26.8161 18.6314 26.3332 17.4656 26.3332 16.25C26.3332 15.0344 26.8161 13.8687 27.6756 13.0091C28.5351 12.1496 29.7009 11.6667 30.9165 11.6667ZM7.08317 15.3334C6.84006 15.3334 6.6069 15.4299 6.43499 15.6018C6.26308 15.7737 6.1665 16.0069 6.1665 16.25C6.1665 16.4931 6.26308 16.7263 6.43499 16.8982C6.6069 17.0701 6.84006 17.1667 7.08317 17.1667C7.32629 17.1667 7.55944 17.0701 7.73135 16.8982C7.90326 16.7263 7.99984 16.4931 7.99984 16.25C7.99984 16.0069 7.90326 15.7737 7.73135 15.6018C7.55944 15.4299 7.32629 15.3334 7.08317 15.3334ZM30.9165 15.3334C30.6734 15.3334 30.4402 15.4299 30.2683 15.6018C30.0964 15.7737 29.9998 16.0069 29.9998 16.25C29.9998 16.4931 30.0964 16.7263 30.2683 16.8982C30.4402 17.0701 30.6734 17.1667 30.9165 17.1667C31.1596 17.1667 31.3928 17.0701 31.5647 16.8982C31.7366 16.7263 31.8332 16.4931 31.8332 16.25C31.8332 16.0069 31.7366 15.7737 31.5647 15.6018C31.3928 15.4299 31.1596 15.3334 30.9165 15.3334ZM18.9998 0.666687C20.9448 0.666687 22.81 1.4393 24.1853 2.81457C25.5606 4.18984 26.3332 6.0551 26.3332 8.00002C26.3332 9.94494 25.5606 11.8102 24.1853 13.1855C22.81 14.5607 20.9448 15.3334 18.9998 15.3334C17.0549 15.3334 15.1897 14.5607 13.8144 13.1855C12.4391 11.8102 11.6665 9.94494 11.6665 8.00002C11.6665 6.0551 12.4391 4.18984 13.8144 2.81457C15.1897 1.4393 17.0549 0.666687 18.9998 0.666687ZM18.9998 4.33335C18.0274 4.33335 17.0947 4.71966 16.4071 5.4073C15.7195 6.09493 15.3332 7.02756 15.3332 8.00002C15.3332 8.97248 15.7195 9.90511 16.4071 10.5927C17.0947 11.2804 18.0274 11.6667 18.9998 11.6667C19.9723 11.6667 20.9049 11.2804 21.5926 10.5927C22.2802 9.90511 22.6665 8.97248 22.6665 8.00002C22.6665 7.02756 22.2802 6.09493 21.5926 5.4073C20.9049 4.71966 19.9723 4.33335 18.9998 4.33335Z" fill="#3770E2"/>
</svg>
