<svg width="11" height="11" viewBox="0 0 11 11" fill="none" xmlns="http://www.w3.org/2000/svg">
<path d="M5.49577 0.0834656C8.48577 0.0834656 10.9124 2.51013 10.9124 5.50013C10.9124 8.49013 8.48577 10.9168 5.49577 10.9168C2.50577 10.9168 0.0791016 8.49013 0.0791016 5.50013C0.0791016 2.51013 2.50577 0.0834656 5.49577 0.0834656ZM5.49577 9.83347C7.88994 9.83347 9.8291 7.8943 9.8291 5.50013C9.8291 3.10597 7.88994 1.1668 5.49577 1.1668C3.1016 1.1668 1.16243 3.10597 1.16243 5.50013C1.16243 7.8943 3.1016 9.83347 5.49577 9.83347ZM7.4111 2.81888L8.17702 3.5848L5.49577 6.26605L4.72985 5.50013L7.4111 2.81888Z" fill="#3770E2"/>
</svg>
