<svg width="64" height="80" viewBox="0 0 64 80" fill="none" xmlns="http://www.w3.org/2000/svg">
<path d="M4 72H60V80H4V72ZM32 64C23.5131 64 15.3737 60.6286 9.37258 54.6274C3.37142 48.6263 0 40.4869 0 32C0 23.5131 3.37142 15.3737 9.37258 9.37258C15.3737 3.37142 23.5131 0 32 0C40.4869 0 48.6263 3.37142 54.6274 9.37258C60.6286 15.3737 64 23.5131 64 32C64 40.4869 60.6286 48.6263 54.6274 54.6274C48.6263 60.6286 40.4869 64 32 64ZM32 56C38.3652 56 44.4697 53.4714 48.9706 48.9706C53.4714 44.4697 56 38.3652 56 32C56 25.6348 53.4714 19.5303 48.9706 15.0294C44.4697 10.5286 38.3652 8 32 8C25.6348 8 19.5303 10.5286 15.0294 15.0294C10.5286 19.5303 8 25.6348 8 32C8 38.3652 10.5286 44.4697 15.0294 48.9706C19.5303 53.4714 25.6348 56 32 56Z" fill="black"/>
</svg>
