<svg width="13" height="11" viewBox="0 0 13 11" fill="none" xmlns="http://www.w3.org/2000/svg">
<path d="M11.3753 9.29167H12.4587V10.375H0.541992V9.29167H1.62533V1.16667C1.62533 1.02301 1.68239 0.885233 1.78398 0.78365C1.88556 0.682068 2.02333 0.625 2.16699 0.625H7.58366C7.72732 0.625 7.86509 0.682068 7.96667 0.78365C8.06826 0.885233 8.12533 1.02301 8.12533 1.16667V9.29167H10.292V4.95833H9.20866V3.875H10.8337C10.9773 3.875 11.1151 3.93207 11.2167 4.03365C11.3183 4.13523 11.3753 4.27301 11.3753 4.41667V9.29167ZM2.70866 1.70833V9.29167H7.04199V1.70833H2.70866ZM3.79199 4.95833H5.95866V6.04167H3.79199V4.95833ZM3.79199 2.79167H5.95866V3.875H3.79199V2.79167Z" fill="black"/>
</svg>
