<svg width="36" height="36" viewBox="0 0 36 36" fill="none" xmlns="http://www.w3.org/2000/svg">
<path d="M23.9109 24.4313L19.8537 32.9563C19.7769 33.1175 19.6621 33.2576 19.5191 33.3645C19.3761 33.4714 19.2092 33.5419 19.0329 33.5698C18.8566 33.5978 18.6761 33.5824 18.507 33.5251C18.338 33.4677 18.1854 33.37 18.0625 33.2405L11.5689 26.3857C11.3954 26.2027 11.1643 26.0849 10.9144 26.052L1.55153 24.8273C1.37463 24.804 1.20606 24.7381 1.06035 24.6351C0.914647 24.5321 0.796174 24.3952 0.715156 24.2363C0.634138 24.0773 0.593006 23.901 0.595306 23.7226C0.597607 23.5442 0.643272 23.369 0.728362 23.2122L5.24203 14.9182C5.36202 14.6964 5.40215 14.4401 5.3557 14.1922L3.62686 4.91001C3.59403 4.73432 3.60451 4.55327 3.65739 4.38254C3.71026 4.21181 3.80395 4.05653 3.93033 3.93015C4.05671 3.80376 4.21199 3.71008 4.38272 3.6572C4.55346 3.60433 4.7345 3.59385 4.9102 3.62668L14.1924 5.35551C14.4402 5.40197 14.6965 5.36184 14.9184 5.24185L23.2124 0.72818C23.3693 0.643066 23.5446 0.597439 23.7232 0.595237C23.9017 0.593036 24.0781 0.634328 24.2371 0.715546C24.3961 0.796764 24.5329 0.915467 24.6358 1.0614C24.7387 1.20734 24.8045 1.37612 24.8275 1.55318L26.0522 10.9142C26.0851 11.1641 26.2029 11.3952 26.3859 11.5687L33.2407 18.0623C33.3702 18.1852 33.4679 18.3378 33.5253 18.5068C33.5826 18.6759 33.598 18.8564 33.57 19.0327C33.5421 19.209 33.4716 19.3759 33.3647 19.5189C33.2578 19.6619 33.1177 19.7768 32.9565 19.8535L24.4315 23.9107C24.2033 24.0193 24.0195 24.2031 23.9109 24.4313ZM25.372 27.9642L27.9644 25.3718L35.7432 33.1488L33.149 35.743L25.372 27.9642Z" fill="white"/>
</svg>
