<svg width="38" height="38" viewBox="0 0 38 38" fill="none" xmlns="http://www.w3.org/2000/svg">
<path d="M19.0003 17.1666C21.4315 17.1666 23.7631 18.1324 25.4821 19.8515C27.2012 21.5706 28.167 23.9021 28.167 26.3333V37.3333H24.5003V26.3333C24.5004 24.9304 23.9644 23.5805 23.002 22.5598C22.0395 21.5391 20.7235 20.9248 19.323 20.8425L19.0003 20.8333C17.5974 20.8332 16.2475 21.3692 15.2268 22.3316C14.2061 23.2941 13.5918 24.6102 13.5095 26.0106L13.5003 26.3333V37.3333H9.83366V26.3333C9.83366 23.9021 10.7994 21.5706 12.5185 19.8515C14.2376 18.1324 16.5692 17.1666 19.0003 17.1666ZM7.08366 22.6666C7.59516 22.6666 8.09199 22.7271 8.56866 22.839C8.2552 23.7721 8.06957 24.7435 8.01683 25.7265L8.00033 26.3333V26.491C7.78959 26.4156 7.5704 26.3663 7.34766 26.3443L7.08366 26.3333C6.40004 26.3333 5.74094 26.588 5.23489 27.0476C4.72884 27.5072 4.41212 28.1388 4.34649 28.8193L4.33366 29.0833V37.3333H0.666992V29.0833C0.666992 27.3815 1.34303 25.7494 2.54639 24.546C3.74975 23.3427 5.38185 22.6666 7.08366 22.6666ZM30.917 22.6666C32.6188 22.6666 34.2509 23.3427 35.4543 24.546C36.6576 25.7494 37.3337 27.3815 37.3337 29.0833V37.3333H33.667V29.0833C33.667 28.3997 33.4123 27.7406 32.9527 27.2345C32.4931 26.7285 31.8615 26.4118 31.181 26.3461L30.917 26.3333C30.5962 26.3333 30.2882 26.3883 30.0003 26.4891V26.3333C30.0003 25.1123 29.8023 23.939 29.4338 22.8426C29.9087 22.7271 30.4055 22.6666 30.917 22.6666ZM7.08366 11.6666C8.29923 11.6666 9.46502 12.1495 10.3246 13.0091C11.1841 13.8686 11.667 15.0344 11.667 16.25C11.667 17.4655 11.1841 18.6313 10.3246 19.4909C9.46502 20.3504 8.29923 20.8333 7.08366 20.8333C5.86808 20.8333 4.70229 20.3504 3.84275 19.4909C2.98321 18.6313 2.50033 17.4655 2.50033 16.25C2.50033 15.0344 2.98321 13.8686 3.84275 13.0091C4.70229 12.1495 5.86808 11.6666 7.08366 11.6666ZM30.917 11.6666C32.1326 11.6666 33.2984 12.1495 34.1579 13.0091C35.0174 13.8686 35.5003 15.0344 35.5003 16.25C35.5003 17.4655 35.0174 18.6313 34.1579 19.4909C33.2984 20.3504 32.1326 20.8333 30.917 20.8333C29.7014 20.8333 28.5356 20.3504 27.6761 19.4909C26.8165 18.6313 26.3337 17.4655 26.3337 16.25C26.3337 15.0344 26.8165 13.8686 27.6761 13.0091C28.5356 12.1495 29.7014 11.6666 30.917 11.6666ZM7.08366 15.3333C6.84054 15.3333 6.60739 15.4299 6.43548 15.6018C6.26357 15.7737 6.16699 16.0068 6.16699 16.25C6.16699 16.4931 6.26357 16.7262 6.43548 16.8981C6.60739 17.0701 6.84054 17.1666 7.08366 17.1666C7.32677 17.1666 7.55993 17.0701 7.73184 16.8981C7.90375 16.7262 8.00033 16.4931 8.00033 16.25C8.00033 16.0068 7.90375 15.7737 7.73184 15.6018C7.55993 15.4299 7.32677 15.3333 7.08366 15.3333ZM30.917 15.3333C30.6739 15.3333 30.4407 15.4299 30.2688 15.6018C30.0969 15.7737 30.0003 16.0068 30.0003 16.25C30.0003 16.4931 30.0969 16.7262 30.2688 16.8981C30.4407 17.0701 30.6739 17.1666 30.917 17.1666C31.1601 17.1666 31.3933 17.0701 31.5652 16.8981C31.7371 16.7262 31.8337 16.4931 31.8337 16.25C31.8337 16.0068 31.7371 15.7737 31.5652 15.6018C31.3933 15.4299 31.1601 15.3333 30.917 15.3333ZM19.0003 0.666626C20.9452 0.666626 22.8105 1.43924 24.1858 2.81451C25.561 4.18978 26.3337 6.05504 26.3337 7.99996C26.3337 9.94488 25.561 11.8101 24.1858 13.1854C22.8105 14.5607 20.9452 15.3333 19.0003 15.3333C17.0554 15.3333 15.1901 14.5607 13.8149 13.1854C12.4396 11.8101 11.667 9.94488 11.667 7.99996C11.667 6.05504 12.4396 4.18978 13.8149 2.81451C15.1901 1.43924 17.0554 0.666626 19.0003 0.666626ZM19.0003 4.33329C18.0279 4.33329 17.0952 4.7196 16.4076 5.40724C15.72 6.09487 15.3337 7.0275 15.3337 7.99996C15.3337 8.97242 15.72 9.90505 16.4076 10.5927C17.0952 11.2803 18.0279 11.6666 19.0003 11.6666C19.9728 11.6666 20.9054 11.2803 21.5931 10.5927C22.2807 9.90505 22.667 8.97242 22.667 7.99996C22.667 7.0275 22.2807 6.09487 21.5931 5.40724C20.9054 4.7196 19.9728 4.33329 19.0003 4.33329Z" fill="white"/>
</svg>
