<svg width="38" height="38" viewBox="0 0 38 38" fill="none" xmlns="http://www.w3.org/2000/svg">
<path d="M20.8337 33.5V37.1667H17.167V33.5H2.50033C2.0141 33.5 1.54778 33.3068 1.20396 32.963C0.860146 32.6192 0.666992 32.1529 0.666992 31.6667V6H37.3337V31.6667C37.3337 32.1529 37.1405 32.6192 36.7967 32.963C36.4529 33.3068 35.9866 33.5 35.5003 33.5H20.8337ZM4.33366 29.8333H33.667V9.66667H4.33366V29.8333ZM20.8337 13.3333H30.0003V17H20.8337V13.3333ZM20.8337 20.6667H30.0003V24.3333H20.8337V20.6667ZM13.5003 13.3333V18.8333H19.0003C19.0003 19.9211 18.6778 20.9845 18.0734 21.889C17.4691 22.7934 16.6101 23.4984 15.6051 23.9147C14.6001 24.331 13.4942 24.4399 12.4273 24.2277C11.3604 24.0154 10.3804 23.4916 9.61124 22.7224C8.84205 21.9532 8.31823 20.9732 8.10601 19.9063C7.89379 18.8394 8.00271 17.7336 8.41899 16.7286C8.83527 15.7236 9.54022 14.8646 10.4447 14.2603C11.3492 13.6559 12.4125 13.3333 13.5003 13.3333ZM0.666992 0.5H37.3337V4.16667H0.666992V0.5Z" fill="white"/>
</svg>
