<svg width="20" height="20" viewBox="0 0 20 20" fill="none" xmlns="http://www.w3.org/2000/svg">
<path d="M13.1995 7.94503C12.7658 7.53415 12.4868 6.98644 12.4095 6.39403L12.0065 3.31103L9.27646 4.79703C8.75156 5.08305 8.14413 5.17946 7.55646 5.07003L4.50046 4.50003L5.07046 7.55603C5.17989 8.1437 5.08348 8.75113 4.79746 9.27603L3.31146 12.006L6.39446 12.409C6.98652 12.4866 7.53384 12.7655 7.94446 13.199L10.0825 15.456L11.4185 12.649C11.6749 12.1096 12.1092 11.6749 12.6485 11.418L15.4565 10.082L13.1995 7.94503ZM13.2245 13.508L11.0115 18.158C10.9696 18.246 10.907 18.3224 10.829 18.3807C10.751 18.439 10.6599 18.4774 10.5638 18.4927C10.4676 18.5079 10.3691 18.4995 10.2769 18.4682C10.1847 18.4369 10.1015 18.3837 10.0345 18.313L6.49246 14.574C6.39784 14.4742 6.2718 14.41 6.13546 14.392L1.02846 13.724C0.931974 13.7113 0.840026 13.6753 0.760549 13.6192C0.681071 13.563 0.61645 13.4883 0.572259 13.4016C0.528067 13.3149 0.505631 13.2187 0.506886 13.1214C0.508141 13.0241 0.533049 12.9286 0.579462 12.843L3.04146 8.31903C3.10691 8.19804 3.1288 8.05823 3.10346 7.92303L2.16046 2.86003C2.14255 2.7642 2.14827 2.66544 2.17711 2.57232C2.20595 2.47919 2.25705 2.39449 2.32599 2.32556C2.39493 2.25662 2.47962 2.20552 2.57275 2.17668C2.66588 2.14784 2.76463 2.14212 2.86046 2.16003L7.92346 3.10303C8.05867 3.12837 8.19847 3.10648 8.31946 3.04103L12.8435 0.579029C12.9291 0.532604 13.0247 0.507716 13.1221 0.506515C13.2195 0.505315 13.3157 0.527837 13.4024 0.572138C13.4891 0.616439 13.5638 0.681186 13.6199 0.760788C13.676 0.84039 13.7119 0.932454 13.7245 1.02903L14.3925 6.13503C14.4104 6.27137 14.4747 6.3974 14.5745 6.49203L18.3135 10.034C18.3841 10.1011 18.4374 10.1843 18.4687 10.2765C18.5 10.3687 18.5084 10.4671 18.4931 10.5633C18.4778 10.6595 18.4394 10.7505 18.3811 10.8285C18.3228 10.9065 18.2464 10.9692 18.1585 11.011L13.5085 13.224C13.384 13.2833 13.2837 13.3835 13.2245 13.508ZM14.0215 15.435L15.4355 14.021L19.6785 18.263L18.2635 19.678L14.0215 15.435Z" fill="#3770E2"/>
</svg>
