<svg width="42" height="42" viewBox="0 0 42 42" fill="none" xmlns="http://www.w3.org/2000/svg">
<path d="M37.4997 13.6667C38.4721 13.6667 39.4048 14.053 40.0924 14.7406C40.78 15.4283 41.1663 16.3609 41.1663 17.3334V24.6667C41.1663 25.6391 40.78 26.5718 40.0924 27.2594C39.4048 27.947 38.4721 28.3334 37.4997 28.3334H35.5527C35.1057 31.8777 33.3807 35.1372 30.7012 37.5C28.0218 39.8628 24.5721 41.1666 20.9997 41.1667V37.5C23.9171 37.5 26.7149 36.3411 28.7778 34.2782C30.8407 32.2153 31.9997 29.4174 31.9997 26.5V15.5C31.9997 12.5826 30.8407 9.78475 28.7778 7.72185C26.7149 5.65895 23.9171 4.50002 20.9997 4.50002C18.0823 4.50002 15.2844 5.65895 13.2215 7.72185C11.1586 9.78475 9.99967 12.5826 9.99967 15.5V28.3334H4.49967C3.52721 28.3334 2.59458 27.947 1.90695 27.2594C1.21932 26.5718 0.833008 25.6391 0.833008 24.6667V17.3334C0.833008 16.3609 1.21932 15.4283 1.90695 14.7406C2.59458 14.053 3.52721 13.6667 4.49967 13.6667H6.44667C6.89406 10.1227 8.61932 6.86369 11.2987 4.50126C13.9781 2.13883 17.4275 0.835327 20.9997 0.835327C24.5718 0.835327 28.0212 2.13883 30.7006 4.50126C33.38 6.86369 35.1053 10.1227 35.5527 13.6667H37.4997ZM13.2263 27.9392L15.1697 24.8299C16.917 25.9244 18.9378 26.5033 20.9997 26.5C23.0615 26.5033 25.0824 25.9244 26.8297 24.8299L28.773 27.9392C26.4433 29.3988 23.7488 30.1709 20.9997 30.1667C18.2505 30.1709 15.556 29.3988 13.2263 27.9392Z" fill="white"/>
</svg>
